<?xml version="1.0" encoding="utf-8"?>
<!-- Generator: Adobe Illustrator 21.0.2, SVG Export Plug-In . SVG Version: 6.00 Build 0)  -->
<svg version="1.1" id="Layer_1" xmlns="http://www.w3.org/2000/svg" xmlns:xlink="http://www.w3.org/1999/xlink" x="0px" y="0px"
	 viewBox="0 0 389 133" style="enable-background:new 0 0 389 133;" xml:space="preserve">
<style type="text/css">
	.st0{fill:#404041;}
	.st1{fill:#48BDB0;}
	.st2{fill:#010303;}
</style>
<g>
	<path class="st0" d="M38.6,40.4h9c2.1,0,3.8,0.4,5,1.2c1.2,0.8,2,1.7,2.4,2.7c0.7,1.8,1.1,3.5,1.3,5.1c0.1,1.7,0.2,3.7,0.2,6v0.5
		c0,4.5-0.3,7.6-0.8,9.5c-0.6,1.8-1.2,3.2-1.9,4c-1.4,1.6-3.6,2.5-6.5,2.5h-4.3V92h-4.4V40.4z M52.1,56v-1.4c0-3.8-0.3-6.5-0.9-8.1
		c-0.6-1.6-1.7-2.4-3.5-2.4h-4.8v24.1h4.6c1.8,0,3-0.9,3.6-2.6C51.8,63.8,52.1,60.6,52.1,56z"/>
	<path class="st0" d="M61.8,61.2c0-3.2,0.1-5.2,0.3-6.2c0.2-0.9,0.4-1.7,0.6-2.4c0.2-0.7,0.4-1.3,0.7-1.7c0.3-0.4,0.6-0.9,1.1-1.4
		c0.4-0.5,0.9-0.8,1.5-1.1c0.5-0.3,1.2-0.5,1.9-0.6c0.7-0.2,1.5-0.2,2.4-0.2c0.9,0,1.7,0.1,2.4,0.2c0.7,0.2,1.4,0.3,1.9,0.5
		c0.5,0.2,1,0.5,1.4,1c0.4,0.5,0.7,0.9,1,1.3c0.9,1.3,1.4,4.9,1.4,10.8V92h-4.4v-3.3c-0.3,0.8-0.9,1.6-1.9,2.4
		c-1,0.8-2.3,1.2-3.9,1.2c-2.3,0-4-1-5.2-2.9c-1.2-1.9-1.8-4.8-1.8-8.5v-5.6c0-2,0.5-3.6,1.5-4.7s1.8-1.9,2.5-2.3
		c1.9-1.2,3.7-2.2,5.6-2.9s2.9-1.2,3.2-1.4v-4.9c0-2.8-0.1-4.5-0.3-5c-0.2-0.5-0.4-0.9-0.5-1.2c-0.4-1-1.5-1.5-3.1-1.5
		s-2.7,0.7-3.2,2.1c-0.5,1.4-0.7,4-0.7,7.9v1.1h-4.4V61.2z M74.1,67.5c-3.2,1.5-5.1,2.4-5.6,2.8s-0.9,0.8-1.3,1.1
		c-1,1-1.5,2.9-1.5,5.7v3.5c0,3,0.2,5.1,0.7,6.3s1.3,1.8,2.5,1.8c1.2,0,2.3-0.3,3.2-0.9s1.6-1.3,2-2V67.5z"/>
	<path class="st0" d="M112.3,56.1c0-3-1.3-4.5-4-4.5c-2.2,0-3.7,0.7-4.3,2c-0.3,0.6-0.4,1.3-0.5,2.2V92h-4.4V56.1
		c0-1.7-0.3-2.9-1-3.5c-0.7-0.7-1.7-1-3.2-1c-1.4,0-2.5,0.4-3.4,1.3c-0.8,0.8-1.3,2.1-1.3,3.8V92h-4.4V48h4.4v4.4
		c0.4-1.3,1.2-2.5,2.4-3.5c1.2-1,2.7-1.5,4.3-1.5c2.9,0,4.9,1.5,5.9,4.5c0.7-1.3,1.7-2.4,3.1-3.2s2.9-1.2,4.6-1.2s3.2,0.7,4.4,2.2
		s1.8,3.7,1.8,6.7V92h-4.4V56.1z"/>
	<path class="st0" d="M128.6,51.4c1-2.5,3-3.7,5.8-3.7c2,0,3.5,0.7,4.5,2c1,1.3,1.7,3,2,5.1c0.3,2.1,0.5,4.6,0.5,7.5v15.8
		c0,0.1,0,0.1,0,0.2c0,5.5-0.7,9.3-2.2,11.3c-1.4,2-3.4,3-5.9,3c-1,0-1.9-0.4-2.8-1.1c-0.9-0.7-1.5-1.6-1.9-2.6v10.9h-4.4V48h4.4
		V51.4z M137.1,60.9c0-3.4-0.1-5.6-0.4-6.4c-0.3-0.8-0.6-1.6-1-2.2c-0.4-0.6-1-0.9-1.9-0.9c-0.9,0-1.6,0.1-2,0.2
		c-1.1,0.3-1.8,1.1-2.3,2.5c-0.5,1.4-0.7,3.7-0.7,6.9v17.5c0,3.7,0.3,6.4,0.9,7.9c0.6,1.5,1.7,2.3,3.4,2.3c1.7,0,2.8-0.8,3.3-2.3
		c0.5-1.5,0.8-4.2,0.8-8.1V60.9z"/>
	<path class="st0" d="M147.4,62.3c0-5.1,0.5-8.6,1.4-10.5c1-1.9,2.3-3.2,3.9-3.7c1-0.3,2.1-0.5,3.4-0.5c1.3,0,2.4,0.2,3.3,0.5
		c1.4,0.5,2.6,1.7,3.6,3.8c0.7,1.5,1.1,5.1,1.1,10.8V70h-12.3v8.8c0,4.5,0.3,7.3,1,8.3s1.7,1.5,3,1.5s2.2-0.4,2.8-1.2
		c0.5-0.8,0.9-1.9,1-3.2c0.1-1.3,0.2-3.1,0.2-5.3v-3.3h4.2v1.4c0,4.3-0.1,7.3-0.4,8.9c-0.7,4.3-3.2,6.5-7.2,6.5
		c-3.6,0-5.9-1.1-7.1-3.3c-0.8-1.4-1.3-3.1-1.5-5s-0.3-4.3-0.3-7.3V62.3z M159.8,66.3v-5.9c0-3.3-0.1-5.5-0.4-6.5
		c-0.4-1.7-1.5-2.6-3.2-2.6c-2.3,0-3.7,1.5-4.1,4.5c-0.2,1.2-0.3,2.7-0.3,4.5c0,0.2,0,0.4,0,0.5v5.4H159.8z"/>
	<path class="st0" d="M182.7,47.5c0.1,0,0.1,0.3,0.1,0.9c0,0.6,0,1.2,0,1.9v0.9c-1.5,0-2.9,0.3-4.1,0.9c-1.2,0.6-2.3,1.7-3.5,3.3V92
		h-4.4V48h4.4v4.9c0.5-1.7,1.4-3.1,2.7-4C179.1,48,180.7,47.5,182.7,47.5z"/>
	<path class="st0" d="M186.4,62.3c0-5.1,0.5-8.6,1.4-10.5c1-1.9,2.3-3.2,3.9-3.7c1-0.3,2.1-0.5,3.4-0.5c1.3,0,2.4,0.2,3.3,0.5
		c1.4,0.5,2.6,1.7,3.6,3.8c0.7,1.5,1.1,5.1,1.1,10.8V70h-12.3v8.8c0,4.5,0.3,7.3,1,8.3s1.7,1.5,3,1.5s2.2-0.4,2.8-1.2
		c0.5-0.8,0.9-1.9,1-3.2c0.1-1.3,0.2-3.1,0.2-5.3v-3.3h4.2v1.4c0,4.3-0.1,7.3-0.4,8.9c-0.7,4.3-3.2,6.5-7.2,6.5
		c-3.6,0-5.9-1.1-7.1-3.3c-0.8-1.4-1.3-3.1-1.5-5s-0.3-4.3-0.3-7.3V62.3z M198.8,66.3v-5.9c0-3.3-0.1-5.5-0.4-6.5
		c-0.4-1.7-1.5-2.6-3.2-2.6c-2.3,0-3.7,1.5-4.1,4.5c-0.2,1.2-0.3,2.7-0.3,4.5c0,0.2,0,0.4,0,0.5v5.4H198.8z"/>
	<path class="st0" d="M221.7,39.7h4.4V92h-4.4v-3.3c-1,2.4-3,3.7-5.8,3.7c-3.3,0-5.3-2-6.2-5.8c-0.5-2.1-0.7-5-0.7-8.6V62.5
		c0-5.9,0.7-9.9,2.1-11.9c1.4-2,3.4-3,6-3c1,0,1.9,0.4,2.8,1.1c0.8,0.7,1.5,1.6,1.9,2.6V39.7z M221.7,61.6c0-3.8-0.3-6.4-0.9-7.9
		c-0.6-1.5-1.7-2.3-3.4-2.3c-1.7,0-2.8,0.8-3.3,2.3c-0.6,1.6-0.8,4.2-0.8,8.1v17.4c0,4,0.3,6.6,1,7.7c0.6,1.1,1.6,1.7,2.8,1.7
		c1.2,0,2.1-0.2,2.7-0.7c0.5-0.5,1-1.2,1.4-2.3s0.6-3.2,0.6-6.4V61.6z"/>
	<path class="st1" d="M233,92V40.4h11.8c4,0,6.7,1.2,8.2,3.6c1.5,2.4,2.3,6.1,2.3,10.9V56c0,5.1-0.7,9-2.2,11.6
		c-1.5,2.6-4.2,4-8.1,4h-4.2V92H233z M240.9,65.2h2.7c1.7,0,2.7-0.6,3.2-1.9c0.5-1.3,0.7-3.7,0.7-7.3v-1c0-3-0.3-5.2-0.8-6.5
		c-0.5-1.3-1.6-2-3.1-2h-2.8V65.2z"/>
	<path class="st1" d="M266.5,92.4c-2.9,0-4.9-1-6.2-3.1s-1.9-5-1.9-8.9v-2.8c0-3.8,1-6.6,3-8.5c1.3-1.3,3.5-2.5,6.7-3.7
		c0.6-0.2,1.4-0.5,2.4-0.9c1-0.4,1.7-0.6,2.1-0.8v-3.8c0-2.4-0.2-4-0.5-4.8s-1.1-1.3-2.3-1.3s-2,0.4-2.4,1.3
		c-0.4,0.9-0.6,2.4-0.6,4.5v2H259v-1.3c0-4.2,0.8-7.3,2.3-9.5c1.6-2.2,4.3-3.3,8.3-3.3s6.8,1.1,8.4,3.3c1.7,2.2,2.5,5.5,2.5,9.8V92
		h-7.8v-4.4c-0.4,1.3-1.1,2.5-2.2,3.4S268.1,92.4,266.5,92.4z M272.6,68.1c-2.5,1.1-4.1,2.1-5,3.1s-1.3,2.5-1.3,4.5v4.7
		c0,2.1,0.2,3.5,0.6,4.4s1.1,1.3,2.1,1.3s1.8-0.3,2.4-1s1-1.4,1.2-2.2V68.1z"/>
	<path class="st1" d="M286.5,92V40h7.7v52H286.5z"/>
</g>
<g>
	<path class="st1" d="M332.9,38C318,38,306,50,306,64.9c0,4.5,1.2,9,3.5,13l-4.2,12.1c-0.2,0.5,0,1,0.3,1.4c0.2,0.3,0.5,0.3,1,0.3
		c0.2,0,0.2,0,0.3,0l12.7-3.6c4.2,2.4,8.7,3.6,13.4,3.6c14.7,0,26.9-12,26.9-26.9S347.7,38,332.9,38z"/>
</g>
<g>
	<g>
		<path d="M346.6,69.9l-0.1,0.2c-0.6,1.6-4,9.9-13.5,9.9c-9.7,0-12.7-8.9-13.1-10.1l0,0c-0.1-0.2-0.1-0.5-0.1-0.5l0-0.3h2l0.1,0.2
			c0.1,0.4,2.4,8.9,11.2,8.9c8.9,0,11.6-8.4,11.7-8.8l0.1-0.3l0.7,0l1.2,0l0,0.3C346.7,69.4,346.7,69.7,346.6,69.9"/>
		<path class="st2" d="M333,80.5c-10,0-13.2-9.4-13.5-10.5c-0.1-0.2-0.1-0.6-0.2-0.6l-0.1-0.9h2.9l0.1,0.6c0.1,0.3,2.3,8.5,10.8,8.5
			c8.6,0,11.1-8.1,11.2-8.4l0.2-0.6l1.1,0l1.7,0l-0.1,0.9c0,0-0.1,0.4-0.2,0.7l-0.1,0.2C346.4,72,342.8,80.5,333,80.5z M320.4,69.5
			c0,0.1,0,0.1,0,0.2c0.3,1,3.3,9.8,12.6,9.8c9.1,0,12.4-8,13-9.6l0.1-0.2c0-0.1,0-0.1,0.1-0.2l-0.6,0l-0.4,0
			c-0.3,0.9-3.2,9.1-12.2,9.1c-8.7,0-11.3-7.7-11.7-9.1H320.4z"/>
	</g>
</g>
</svg>
